<?xml version="1.0" encoding="utf-8"?>
<svg xmlns="http://www.w3.org/2000/svg" viewBox="0 0 500 500">
  <g id="Capa_1" transform="matrix(1, 0, 0, 1, -365.808838, -15.931373)">
    <g transform="matrix(1, 0, 0, 1, 456.55545, 215.798035)">
      <path class="cls-3" d="M38.37,46.65s-6.78-1.99-10.02-8.1c0,0,3.45,4.12,9.02,4.9,5.58.78,7.71.07,9.38,0,.92-.04,2.68-.23,4.49.18,1.63-4.47.79-9.4-2.57-12.56-4.68-4.4-12.47-3.71-17.4,1.54-4.94,5.25-5.15,13.07-.47,17.47,4.68,4.4,12.47,3.71,17.4-1.54.24-.26.47-.52.69-.79-2.89.27-6.54.15-10.52-1.1ZM30.69,35.61c1.12-.69,2.38-.83,3.71-.53,1.31.3,2.34.94,3.07,1.93.82,1.12.93,2.71-.2,3.76-.78.72-1.79,1.01-2.93,1-2.23,0-4.28-1.46-4.78-3.13-.33-1.12.13-2.42,1.13-3.04Z" style="fill: none; stroke-width: 0px;"/>
    </g>
    <path class="cls-3" d="M 545.315 251.848 C 541.855 251.888 538.775 254.678 537.995 258.468 C 537.265 262.048 539.295 264.578 542.915 264.618 C 543.325 264.568 543.745 264.568 544.135 264.468 C 547.575 263.618 549.585 261.328 550.345 257.978 C 551.175 254.278 549.075 251.808 545.305 251.848 L 545.315 251.848 Z" style="fill: none; stroke-width: 0px;"/>
    <path class="cls-3" d="M 592.025 252.068 C 589.775 251.718 587.575 251.948 585.535 252.998 C 582.335 254.638 580.285 257.128 580.025 260.208 C 580.015 263.338 581.305 264.628 583.785 264.578 C 585.935 264.538 587.555 263.398 588.975 261.908 C 591.435 259.308 591.695 255.848 592.545 252.618 C 592.585 252.478 592.225 252.098 592.015 252.068 L 592.025 252.068 Z" style="fill: none; stroke-width: 0px;"/>
    <path class="cls-3" d="M 623.095 252.038 C 619.185 252.698 615.845 255.908 615.075 259.748 C 614.435 262.978 616.525 265.068 619.735 264.388 C 621.415 264.038 622.745 263.098 623.905 261.878 C 626.485 259.178 626.695 255.588 627.665 252.148 C 626.035 251.698 624.565 251.788 623.085 252.038 L 623.095 252.038 Z" style="fill: none; stroke-width: 0px;"/>
    <path class="cls-2" d="M 629.135 249.998 C 625.745 249.618 622.395 249.688 619.195 251.038 C 615.355 252.658 612.575 255.268 611.585 259.468 C 610.735 263.078 612.655 266.138 616.035 266.548 C 619.665 266.988 622.665 265.818 624.985 262.958 C 625.185 262.718 625.405 262.498 625.615 262.268 C 625.655 262.878 625.535 263.368 625.385 263.838 C 624.825 265.658 625.955 266.838 627.915 266.428 C 627.975 265.908 627.985 265.358 628.105 264.848 C 629.115 260.588 630.135 256.338 631.175 252.078 C 631.295 251.568 631.515 251.078 631.685 250.578 L 631.685 250.388 C 630.835 250.258 629.995 250.098 629.145 250.008 L 629.135 249.998 Z M 623.915 261.878 C 622.755 263.098 621.425 264.038 619.745 264.388 C 616.535 265.068 614.435 262.978 615.085 259.748 C 615.855 255.908 619.195 252.688 623.105 252.038 C 624.585 251.788 626.055 251.698 627.685 252.148 C 626.705 255.588 626.495 259.178 623.925 261.878 L 623.915 261.878 Z" style="fill: rgb(44, 123, 192); stroke-width: 0px;"/>
    <path class="cls-2" d="M 595.955 250.318 C 592.055 249.668 588.165 249.548 584.415 251.048 C 580.515 252.608 577.665 255.218 576.635 259.438 C 575.755 263.028 577.375 265.928 580.625 266.548 C 584.195 267.228 587.205 266.178 589.635 263.468 C 589.965 263.098 590.285 262.718 590.605 262.348 C 590.675 262.378 590.745 262.418 590.815 262.448 C 590.675 262.918 590.545 263.388 590.395 263.848 C 589.895 265.358 590.465 266.268 592.045 266.548 C 592.645 266.658 592.885 266.428 593.015 265.838 C 593.675 262.768 594.345 259.708 595.045 256.648 C 595.515 254.618 596.055 252.598 596.565 250.558 C 596.305 250.458 596.135 250.358 595.955 250.328 L 595.955 250.318 Z M 588.975 261.908 C 587.565 263.398 585.945 264.538 583.785 264.578 C 581.305 264.628 580.015 263.328 580.025 260.208 C 580.275 257.128 582.335 254.648 585.535 252.998 C 587.575 251.948 589.765 251.718 592.025 252.068 C 592.235 252.098 592.595 252.488 592.555 252.618 C 591.705 255.848 591.445 259.308 588.985 261.908 L 588.975 261.908 Z" style="fill: rgb(44, 123, 192); stroke-width: 0px;"/>
    <path class="cls-2" d="M 526.905 246.308 C 529.225 246.298 531.545 246.308 533.875 246.308 C 535.165 246.308 535.715 245.708 535.715 244.338 C 535.595 244.318 535.475 244.278 535.355 244.278 C 531.255 244.278 527.145 244.248 523.045 244.288 C 521.535 244.298 520.585 245.208 520.195 246.758 C 519.205 250.758 518.205 254.758 517.205 258.748 C 516.265 262.498 515.315 266.248 514.385 270.008 C 514.145 270.978 514.625 271.808 515.555 272.058 C 516.775 272.388 517.345 272.088 517.625 270.948 C 518.585 267.068 519.555 263.198 520.485 259.308 C 520.665 258.578 520.955 258.288 521.765 258.298 C 524.405 258.358 527.045 258.318 529.685 258.318 C 531.245 258.318 531.865 257.728 532.025 255.968 L 521.355 255.968 C 521.945 253.618 522.485 251.438 523.055 249.268 C 523.585 247.268 524.835 246.308 526.915 246.298 L 526.905 246.308 Z" style="fill: rgb(44, 123, 192); stroke-width: 0px;"/>
    <path class="cls-2" d="M 548.495 250.098 C 546.775 249.808 544.915 249.788 543.205 250.118 C 539.015 250.938 535.955 253.308 534.645 257.508 C 533.345 261.668 535.275 265.138 539.465 266.268 C 540.435 266.528 541.465 266.578 542.465 266.718 C 542.465 266.688 542.465 266.668 542.475 266.638 C 543.015 266.618 543.555 266.598 544.095 266.568 C 548.315 266.318 552.395 263.228 553.735 259.258 C 555.245 254.818 553.075 250.888 548.485 250.108 L 548.495 250.098 Z M 550.345 257.978 C 549.585 261.338 547.575 263.618 544.135 264.468 C 543.735 264.568 543.325 264.568 542.915 264.618 C 539.295 264.578 537.255 262.048 537.995 258.468 C 538.775 254.678 541.855 251.888 545.315 251.848 C 549.085 251.798 551.185 254.278 550.355 257.978 L 550.345 257.978 Z" style="fill: rgb(44, 123, 192); stroke-width: 0px;"/>
    <path class="cls-2" d="M 570.545 250.048 C 567.185 249.468 564.275 250.428 561.765 252.698 C 561.555 252.888 561.335 253.068 561.125 253.258 C 561.075 253.218 561.015 253.178 560.965 253.128 C 561.145 252.078 561.315 251.028 561.525 249.798 C 560.745 249.798 560.055 249.848 559.375 249.788 C 558.645 249.728 558.405 250.048 558.255 250.718 C 557.375 254.548 556.455 258.368 555.555 262.198 C 555.225 263.608 554.895 265.008 554.525 266.568 C 555.525 266.568 556.375 266.548 557.225 266.568 C 557.765 266.588 558.005 266.368 558.125 265.838 C 558.665 263.488 559.245 261.148 559.835 258.818 C 560.665 255.518 562.625 253.198 565.945 252.238 C 569.305 251.268 571.225 253.088 570.485 256.488 C 569.945 258.968 569.305 261.418 568.715 263.888 C 568.305 265.568 569.125 266.618 570.855 266.538 C 571.125 266.528 571.565 266.208 571.625 265.948 C 572.515 262.348 573.435 258.758 574.175 255.118 C 574.715 252.458 573.255 250.508 570.575 250.038 L 570.545 250.048 Z" style="fill: rgb(44, 123, 192); stroke-width: 0px;"/>
    <path class="cls-2" d="M 604.085 249.988 C 602.385 250.248 600.825 250.858 599.655 252.188 C 598.225 253.798 598.285 255.858 599.905 257.268 C 600.615 257.878 601.505 258.288 602.315 258.778 C 603.095 259.248 603.985 259.608 604.655 260.208 C 605.815 261.228 605.675 262.818 604.435 263.748 C 603.395 264.538 602.165 264.778 600.915 264.628 C 599.515 264.468 598.135 264.138 596.685 263.868 C 596.415 264.408 596.135 264.988 595.825 265.598 C 596.135 265.748 596.325 265.868 596.535 265.938 C 598.785 266.678 601.075 266.798 603.405 266.438 C 605.075 266.178 606.615 265.618 607.815 264.368 C 609.585 262.508 609.435 260.018 607.375 258.488 C 606.565 257.888 605.625 257.478 604.735 256.978 C 604.155 256.648 603.525 256.388 603.005 255.978 C 601.795 255.048 601.795 253.518 603.075 252.698 C 603.765 252.258 604.655 251.908 605.455 251.898 C 606.825 251.868 608.205 252.128 609.725 252.278 C 609.925 251.868 610.215 251.278 610.565 250.558 C 608.355 249.708 606.225 249.678 604.075 249.998 L 604.085 249.988 Z" style="fill: rgb(44, 123, 192); stroke-width: 0px;"/>
    <rect class="cls-2" x="535.095" y="272.188" width="41.76" height="3.44" style="fill: rgb(44, 123, 192); stroke-width: 0px;"/>
    <rect class="cls-6" x="576.855" y="272.188" width="50.82" height="3.44" style="fill: rgb(232, 65, 70); stroke-width: 0px;"/>
  </g>
</svg>